Coordinates

Units are S.I. units (second, meters, Newtons, ...)
If the header above contains a line with 'inDegrees', this indicates whether rotational values are in degrees (yes) or radians (no).

inDegrees=no
nColumns=21
nRows=22
DataType=double
version=3
OpenSimVersion=4.6-2026-03-31-d6972f9e6
endheader
time	/jointset/ground_pelvis/pelvis_tilt/value	/jointset/ground_pelvis/pelvis_list/value	/jointset/ground_pelvis/pelvis_rotation/value	/jointset/ground_pelvis/pelvis_tx/value	/jointset/ground_pelvis/pelvis_ty/value	/jointset/ground_pelvis/pelvis_tz/value	/jointset/hip_r/hip_flexion_r/value	/jointset/hip_r/hip_adduction_r/value	/jointset/hip_r/hip_rotation_r/value	/jointset/walker_knee_r/knee_angle_r/value	/jointset/patellofemoral_r/knee_angle_r_beta/value	/jointset/ankle_r/ankle_angle_r/value	/jointset/subtalar_r/subtalar_angle_r/value	/jointset/hip_l/hip_flexion_l/value	/jointset/hip_l/hip_adduction_l/value	/jointset/hip_l/hip_rotation_l/value	/jointset/walker_knee_l/knee_angle_l/value	/jointset/patellofemoral_l/knee_angle_l_beta/value	/jointset/ankle_l/ankle_angle_l/value	/jointset/subtalar_l/subtalar_angle_l/value
139.996	-0.08998800529143797	-0.07982210066547749	-0.09722245787280877	0.8956798200000612	0.9930196600000637	-0.2564868100000187	0.4614620793136155	0.1064097853596401	0.04552403426860803	0.6553644840703956	0.6553644800000376	0.2251474579738524	-0.09968736857304077	0.06338889165773492	-0.07725037284796306	0.007962866617354533	1.441628661516781	1.4416286600001	-0.4284999884571905	-0.2605676900964763
140	-0.08932863344665962	-0.08367679730879746	-0.09603199819133328	0.8943955828509783	0.99072620617671	-0.2567667113849119	0.4582288076952785	0.1081493878518131	0.04269056564727312	0.6736174911185677	0.6736174878204346	0.2411929784019297	-0.09570043408031703	0.08013409504562236	-0.08177245184999314	0.01312753453129864	1.46775363515492	1.467753634012472	-0.4174429044342752	-0.2728916395609092
140.004	-0.08872626764335974	-0.08745914788587354	-0.09477078231583358	0.8931192230389269	0.9884555717208484	-0.2570485475774854	0.4549033093337561	0.1097958932874607	0.03979665756757291	0.6915662177945511	0.6915662152474412	0.2571676582617625	-0.09165850737157728	0.09696382185733463	-0.08618994503725456	0.01836324804829676	1.493633672757339	1.493633671977919	-0.4063228110548848	-0.2849127378467028
140.008	-0.08823562362967519	-0.0910998067929792	-0.0933728173763856	0.8918584446865364	0.9862304539524408	-0.2573339018251943	0.4513944589991835	0.1112616588825776	0.03678746620475513	0.7089142468248323	0.7089142449881849	0.2730002701481506	-0.08751077263653625	0.1139586646804807	-0.09040341776341417	0.02373494709885783	1.519028340632621	1.519028340194727	-0.3950775016899837	-0.2963361663481933
140.012	-0.08790716346432338	-0.09453513043504443	-0.09178131289900543	0.8906206164758274	0.9840732691549847	-0.2576236859325536	0.4476135892021826	0.1124694561296862	0.03361896853387834	0.7253805436040849	0.7253805424213705	0.2886187139562466	-0.08321443809901458	0.1311917405491548	-0.09432328156308559	0.02929591358150703	1.543705989148857	1.543705989022201	-0.3836465865161025	-0.3068829018029292
140.016	-0.08778557221110166	-0.09770937929969326	-0.0899525196702993	0.8894126316633989	0.9820059434852669	-0.2579178762584784	0.4434761025420376	0.1133565702730477	0.03026250657657686	0.740706275205077	0.7407062746080589	0.3039493272713262	-0.07873809659117378	0.1487256748888627	-0.09787370694338737	0.03508318236430018	1.567447597106518	1.567447597253685	-0.3719728607220067	-0.3162969730661186
140.02	-0.08790861364597474	-0.1005763342295379	-0.08785875111531258	0.8882408003049979	0.9800496640149436	-0.2582153207859682	0.4389031372519666	0.113877828082031	0.02670841202037794	0.7546605914587038	0.7546605913716551	0.3189159416293059	-0.07406456863594223	0.1666100707973107	-0.1009955876269189	0.04111415961306143	1.590050001044437	1.590050001422535	-0.3600040796153569	-0.3243520263419566
140.024	-0.08830623893401209	-0.1031003186007077	-0.08549042811526572	0.8871107801214249	0.9782246127902937	-0.2585136253558545	0.4338230257480196	0.114007463637166	0.02296854723676892	0.7670451112297193	0.7670451115728287	0.3334386960172106	-0.06919323263618531	0.1848793650145109	-0.1036485017962827	0.04738456611274347	1.611328393986948	1.611328394549393	-0.3476950961729141	-0.3308570673784699
140.028	-0.08899984911842929	-0.1052566697945323	-0.08285703613193963	0.8860275479764107	0.9765497075008828	-0.2588091244001294	0.4281723565768993	0.1137398094244237	0.01907762213950629	0.7776969865228669	0.7776969872145456	0.3474326667084098	-0.06414179093469892	0.2035510186725161	-0.1058116855740489	0.05386774599724701	1.631118051125103	1.631118051823764	-0.3350102106741848	-0.3356612820806961
140.032	-0.09000175254770272	-0.1070317224367641	-0.07998691770655721	0.8849954095254502	0.9750423601393805	-0.259096942419034	0.4218966558197942	0.1130888267133439	0.0150931036138346	0.7864905585565313	0.7864905595148979	0.3608064702129546	-0.05894727297124253	0.2226241666332297	-0.1074840665115746	0.06051534530724365	1.649275325961249	1.649275326748822	-0.3219255054510828	-0.3386578287209799
140.036	-0.09131496861756772	-0.108422338986804	-0.07692588368022808	0.8840180407397255	0.973718254409924	-0.2593711493047036	0.4149508631054211	0.1120865004856011	0.01109358312557567	0.7933377163731429	0.7933377175173131	0.3734610834241312	-0.05366602985188242	0.242078978846676	-0.1086833850907981	0.06725931432648476	1.665678016672795	1.665678017504916	-0.308430936056642	-0.3397864790282769
140.04	-0.09293346075328435	-0.1094350081393645	-0.07373471695277893	0.8830985534155934	0.9725911467599621	-0.2596250030650034	0.407299712791956	0.1107801880973307	0.007175652707388235	0.7981870914125542	0.7981870926643131	0.3852891018671485	-0.0483726392229926	0.2618768877963145	-0.1094444212856716	0.07401509762673621	1.680225197758848	1.680225198595468	-0.2945320177356456	-0.3390350299026685
140.044	-0.0948427351414851	-0.1100845783900038	-0.07048571417570962	0.8822395781025254	0.9716727048583842	-0.2598512649398494	0.3989179675665185	0.1092291216794463	0.003449485421049865	0.801022211960994	0.8010222132470637	0.3961745695090357	-0.04315783365766605	0.2819616318641724	-0.109816408636877	0.08068578941340608	1.692836586661362	1.692836587467288	-0.2802510228531719	-0.3364395103866449
140.048	-0.09702068571457528	-0.1103927378881167	-0.06725846189629879	0.8814433593801665	0.9709723970017732	-0.260042567689851	0.3897904012641789	0.1075003377563391	3.337180431080934e-05	0.8018587573924106	0.8018587586471164	0.4059934473500609	-0.03812563698715651	0.3022609641231185	-0.1098597927485102	0.08716697270658753	1.703451509308572	1.703451510053497	-0.2656276376891381	-0.3320832666779009
140.052	-0.09943861090606555	-0.1103863259107465	-0.06413510657105338	0.8807118577543586	0.9704974377769483	-0.2601918147642083	0.3799115067786749	0.1056643058517802	-0.002952465868131362	0.8007410969944321	0.800741098162367	0.4146147404235794	-0.0333898868147281	0.3226888984278751	-0.1096424932460504	0.09335191257671366	1.712027534989811	1.71202753564832	-0.2507190371029249	-0.3260949779466927
140.056	-0.1020623705045908	-0.1100955143668656	-0.06119543670133004	0.8800468512858525	0.9702527890748965	-0.2602925848460657	0.3692849783919265	0.1037905046929303	-0.005392361316625382	0.7977383276414277	0.7977383286797765	0.4219022418948115	-0.0290703302250152	0.343148389627854	-0.109235805598054	0.09913673589437128	1.718538848588362	1.718538849140246	-0.2355993826651025	-0.3186456485192759
140.06	-0.1048536468463029	-0.1095519011177371	-0.05851210313946684	0.8794500302495388	0.9702412130866617	-0.260339515615173	0.3579230231313633	0.1019431947407297	-0.007181546729544605	0.7929400194501167	0.7929400203304398	0.4277168025415307	-0.02528850005622327	0.3635343218096425	-0.1087101013900737	0.1044252472567012	1.722974421768611	1.722974422199429	-0.2203587988089933	-0.3099446596534052
140.064	-0.1077712906097596	-0.1087866198310381	-0.05614623204027094	0.8789230780517616	0.9704633672669863	-0.2603286462125063	0.3458455824181724	0.1001776396026764	-0.0082320394312021	0.786451877391919	0.7864518781011985	0.4319190403584321	-0.0221635023604699	0.3837366978486459	-0.1081305464952336	0.1091331678132559	1.725336067666023	1.725336067967622	-0.2051017830828213	-0.3002347951082289
140.068	-0.1107727913976218	-0.1078286438752156	-0.05414357531806065	0.8784677301878364	0.970917919785334	-0.2602577074582823	0.3330796303062958	0.0985370082249994	-0.008477988615308615	0.7783915516550322	0.7783915521956551	0.4343724401501088	-0.01980767861128462	0.4036440131844525	-0.1075531119528711	0.11319178684127	1.725636513432488	1.725636513603227	-0.1899447901238581	-0.2897857726683853
140.072	-0.1138159109676461	-0.1067034497738113	-0.05253131220863608	0.8780858036913711	0.9716016628663752	-0.2601263516247987	0.3196587127688743	0.09705013843181527	-0.007880436111444278	0.7688848165030664	0.7688848168914477	0.4349467693271608	-0.01832210299483415	0.4231467982762568	-0.1070211476698921	0.1165510558614347	1.723897620345083	1.723897620389668	-0.1750127655310056	-0.2788858660018018
140.076	-0.1168604076230939	-0.1054320882268503	-0.05131568248812206	0.8777791954838023	0.9725096176907202	-0.2599363069198157	0.3056227280825627	0.0957302654636793	-0.006431221119610432	0.7580622305600622	0.7580622308239011	0.4335216533168549	-0.01779212985872575	0.4421411578314489	-0.1065627084902061	0.1191819728879381	1.720148783875514	1.720148783804429	-0.1604348323702849	-0.2678319623977469
140.08	-0.1198696931021375	-0.1040306093646023	-0.05048065742539237	0.8775498549294863	0.9736351401290003	-0.2596914383358702	0.2910177980698	0.09457473909728345	-0.004155599829516431	0.7460562699693321	0.7460562701438176	0.4299901143402435	-0.01828340443384452	0.4605320123857096	-0.1061887341137683	0.1210779819956076	1.714425455932152	1.714425455760693	-0.1463396783583022	-0.256919041131748
